<svg xmlns="http://www.w3.org/2000/svg" viewBox="0 0 32 40" x="0px" y="0px"><path d="M17.1714,7.75H7.1714c-.9648,0-1.75-.7852-1.75-1.75v-2c0-.9648,.7852-1.75,1.75-1.75h2.3535c.3281-1.1528,1.3896-2,2.6465-2,.7432,0,1.4346,.29,1.9473,.8164,.335,.3257,.5742,.7329,.7002,1.1836h2.3525c.9648,0,1.75,.7852,1.75,1.75v2c0,.9648-.7852,1.75-1.75,1.75ZM7.1714,3.75c-.1377,0-.25,.1123-.25,.25v2c0,.1377,.1123,.25,.25,.25h10c.1377,0,.25-.1123,.25-.25v-2c0-.1377-.1123-.25-.25-.25h-3c-.4141,0-.75-.3359-.75-.75,0-.335-.1289-.645-.3633-.8726-.2422-.2485-.5518-.3774-.8867-.3774-.6895,0-1.25,.5605-1.25,1.25,0,.4141-.3359,.75-.75,.75h-3Z"/><path d="M20.1714,31.75H4.1714c-1.5166,0-2.75-1.2334-2.75-2.75V7c0-1.5166,1.2334-2.75,2.75-2.75h2c.4141,0,.75,.3359,.75,.75s-.3359,.75-.75,.75h-2c-.6895,0-1.25,.5605-1.25,1.25V29c0,.6895,.5605,1.25,1.25,1.25H20.1714c.6895,0,1.25-.5605,1.25-1.25v-2c0-.4141,.3359-.75,.75-.75s.75,.3359,.75,.75v2c0,1.5166-1.2334,2.75-2.75,2.75Z"/><path d="M22.1714,13.6099c-.4141,0-.75-.3359-.75-.75V7c0-.6895-.5605-1.25-1.25-1.25h-2c-.4141,0-.75-.3359-.75-.75s.3359-.75,.75-.75h2c1.5166,0,2.75,1.2339,2.75,2.75v5.8599c0,.4141-.3359,.75-.75,.75Z"/><path d="M15.1001,27.75c-.1973,0-.3887-.0776-.5303-.2197-.1777-.1772-.2539-.4316-.2051-.6772l.707-3.5356c.0293-.1455,.1006-.2788,.2051-.3833l9.1924-9.1924c.293-.293,.7676-.293,1.0605,0l2.8291,2.8286c.1406,.1406,.2197,.3315,.2197,.5303s-.0791,.3896-.2197,.5303l-9.1924,9.1924c-.1045,.105-.2383,.1763-.3828,.2051l-3.5361,.707c-.0498,.0098-.0986,.0146-.1475,.0146Zm1.3975-3.916l-.4414,2.21,2.21-.4419,8.502-8.5015-1.7686-1.7681-8.502,8.5015Z"/><path d="M27.8286,17.8506c-.1924,0-.3838-.0732-.5303-.2197l-2.8291-2.8286c-.1406-.1406-.2197-.3315-.2197-.5303s.0791-.3896,.2197-.5303l1.4141-1.4141c1.0732-1.0723,2.8184-1.0713,3.8896,0,.5195,.519,.8057,1.2095,.8057,1.9443s-.2861,1.4253-.8057,1.9448l-1.4141,1.4141c-.1465,.1465-.3379,.2197-.5303,.2197Zm-1.7686-3.5786l1.7686,1.7681,.8838-.8838c.2363-.2363,.3662-.5503,.3662-.8843s-.1299-.6475-.3662-.8838c-.4883-.4863-1.2803-.4883-1.7686,0l-.8838,.8838Z"/><path d="M18.1714,11.75H6.1714c-.4141,0-.75-.3359-.75-.75s.3359-.75,.75-.75h12c.4141,0,.75,.3359,.75,.75s-.3359,.75-.75,.75Z"/><path d="M18.1714,15.75H6.1714c-.4141,0-.75-.3359-.75-.75s.3359-.75,.75-.75h12c.4141,0,.75,.3359,.75,.75s-.3359,.75-.75,.75Z"/><path d="M16.0317,19.75H6.1714c-.4141,0-.75-.3359-.75-.75s.3359-.75,.75-.75h9.8604c.4141,0,.75,.3359,.75,.75s-.3359,.75-.75,.75Z"/><path d="M12.8413,23.75H6.1714c-.4141,0-.75-.3359-.75-.75s.3359-.75,.75-.75h6.6699c.4141,0,.75,.3359,.75,.75s-.3359,.75-.75,.75Z"/><path d="M12.0415,27.75H6.1714c-.4141,0-.75-.3359-.75-.75s.3359-.75,.75-.75h5.8701c.4141,0,.75,.3359,.75,.75s-.3359,.75-.75,.75Z"/></svg>
