<svg xmlns="http://www.w3.org/2000/svg" xmlns:xlink="http://www.w3.org/1999/xlink" version="1.1" x="0px" y="0px" viewBox="0 0 32 32" xml:space="preserve"><path d="M2.531,19.978c0.54-0.117,0.883-0.649,0.766-1.189C3.1,17.877,3,16.939,3,16C3,8.832,8.832,3,16,3    c4.439,0,8.574,2.313,10.945,6H25c-0.553,0-1,0.448-1,1s0.447,1,1,1h4c0.553,0,1-0.448,1-1V6c0-0.552-0.447-1-1-1s-1,0.448-1,1    v1.018C25.196,3.293,20.749,1,16,1C7.729,1,1,7.729,1,16c0,1.081,0.115,2.162,0.342,3.211C1.444,19.68,1.858,20,2.319,20    C2.389,20,2.46,19.993,2.531,19.978z"/><path d="M30.657,12.789c-0.117-0.541-0.649-0.881-1.189-0.766c-0.539,0.117-0.882,0.649-0.766,1.189    C28.899,14.125,29,15.063,29,16c0,7.168-5.832,13-13,13c-4.439,0-8.574-2.313-10.945-6H7c0.552,0,1-0.448,1-1s-0.448-1-1-1H3    c-0.552,0-1,0.448-1,1v4c0,0.552,0.448,1,1,1s1-0.448,1-1v-1.019C6.803,28.706,11.251,31,16,31c8.271,0,15-6.729,15-15    C31,14.92,30.885,13.84,30.657,12.789z"/><path d="M15.256,7.332C14.615,8.046,9,14.407,9,18c0,3.86,3.14,7,7,7c3.859,0,7-3.14,7-7c0-3.593-5.615-9.954-6.256-10.668    C16.365,6.909,15.635,6.909,15.256,7.332z M21,18c0,2.757-2.243,5-5,5s-5-2.243-5-5c0-1.906,2.816-5.884,5-8.475    C18.184,12.116,21,16.094,21,18z"/><path d="M15,21c0,0.552,0.448,1,1,1c2.206,0,4-1.792,4-3.995c0-0.552-0.447-1-1-1s-1,0.448-1,1c0,1.1-0.897,1.995-2,1.995    C15.448,20,15,20.448,15,21z"/></svg>
