<svg xmlns="http://www.w3.org/2000/svg" xmlns:xlink="http://www.w3.org/1999/xlink" version="1.1" x="0px" y="0px" viewBox="0 0 100 100" xml:space="preserve"><path d="M91.7,32.1H80.2v-7.5c0-8.4-6.8-15.2-15.2-15.2H35c-8.4,0-15.2,6.8-15.2,15.2v7.5H8.3c-1.8,0-3.3,1.2-3.3,2.7v2.6  c0,1.5,1.5,2.7,3.3,2.7h1.3l8.6,43.6c0.8,4,4.4,6.9,8.5,6.9h46.6c4.1,0,7.7-2.9,8.5-6.9l8.6-43.6h1.3c1.8,0,3.3-1.2,3.3-2.7v-2.6  C95,33.3,93.5,32.1,91.7,32.1z M24.8,24.6c0-5.6,4.6-10.2,10.2-10.2h30c5.6,0,10.2,4.6,10.2,10.2v7.5H24.8V24.6z M14.7,40.1h12.9  l1.9,18H18.3L14.7,40.1z M26.7,85.6c-1.7,0-3.2-1.2-3.6-2.9l-3.9-19.6h10.9l2.4,22.5H26.7z M47.5,85.6h-9.9l-2.4-22.5h12.3V85.6z   M47.5,58.1H34.7l-1.9-18h14.7V58.1z M62.4,85.6h-9.9V63.1h12.3L62.4,85.6z M65.3,58.1H52.5v-18h14.7L65.3,58.1z M76.8,82.7  c-0.3,1.7-1.8,2.9-3.6,2.9h-5.8l2.4-22.5h10.9L76.8,82.7z M81.7,58.1H70.4l1.9-18h12.9L81.7,58.1z"/></svg>
